<svg xmlns="http://www.w3.org/2000/svg" width="88" height="69" viewBox="0 0 88 69" fill="none"><g opacity="0.1"><path d="M7.97164 54.6737C6.6227 42.7501 14.4995 34.6204 23.3398 33.1269C24.6526 32.9101 26.0016 32.8258 27.3385 32.8017C30.506 32.7535 33.6736 32.7897 36.8412 32.7897C38.8405 32.7897 39.4548 33.693 38.6719 35.4996C37.9493 37.2099 37.1785 38.896 36.504 40.6183C34.878 44.7254 37.1303 49.3262 41.5023 49.7357C45.9827 50.1572 50.6196 50.2174 55.0518 49.555C60.4958 48.7601 63.6272 43.3644 62.9046 37.6435C62.3385 33.1751 61.941 28.6947 61.4713 24.2143C61.3388 22.9497 61.2064 21.6851 61.0498 20.312C62.1217 20.312 63.0973 20.2518 64.0488 20.3482C64.2896 20.3723 64.5787 20.842 64.6871 21.1672C66.3733 26.587 68.0233 32.0189 69.6854 37.4507C70.2153 39.161 70.7332 40.8713 71.2872 42.6538C71.0223 42.7622 70.7814 42.8585 70.5405 42.9549C66.566 44.5808 63.7356 47.2546 62.6757 51.5423C62.2542 53.2646 62.3987 54.8183 64.1331 55.83C64.2776 55.9143 64.3739 56.2274 64.3619 56.4201C64.3258 56.8296 64.2053 57.2391 64.0969 57.745H63.1936C53.7872 57.745 44.3688 57.745 34.9623 57.745C34.4083 57.745 34.059 57.6607 33.7579 57.0825C32.8667 55.4084 31.3853 54.6256 29.4823 54.6256C22.6654 54.6256 15.8364 54.6256 9.01946 54.6256H7.95958L7.97164 54.6737ZM21.9909 48.447C19.9796 48.447 17.9682 48.447 15.9689 48.447C14.8247 48.447 14.1141 49.0612 14.1261 50.0127C14.1382 50.9039 14.8367 51.5423 15.9328 51.5423C19.9193 51.5544 23.9059 51.5544 27.8925 51.5423C28.9885 51.5423 29.675 50.916 29.675 50.0007C29.675 49.0371 29.0005 48.447 27.8323 48.447C25.8811 48.447 23.9421 48.447 21.9909 48.447ZM23.4482 45.2914C24.9658 45.2914 26.4833 45.3155 28.0129 45.2914C29.0487 45.2674 29.6871 44.629 29.675 43.7377C29.675 42.8344 29.0246 42.2322 27.9888 42.2322C24.9778 42.2322 21.9668 42.1961 18.9678 42.2563C18.474 42.2563 17.8237 42.5815 17.5226 42.9669C16.7758 43.9545 17.5466 45.2312 18.9076 45.2914C20.4252 45.3517 21.9427 45.3035 23.4603 45.3035L23.4482 45.2914Z" fill="url(#paint0_linear_46_5265)"></path><path d="M28.1089 29.7061C27.7716 29.7182 27.4465 29.7543 27.1213 29.7543C18.8711 29.7543 10.6209 29.7543 2.37073 29.7543C0.491859 29.7543 0.0703125 29.3207 0.0703125 27.4419C0.0703125 21.2873 0.0703125 15.1449 0.0703125 8.99036L0.0703125 7.95459H4.7916C4.7916 8.47248 4.76751 8.97832 4.7916 9.48417C4.82773 10.3273 5.41789 10.9415 6.20075 11.0017C6.95953 11.062 7.67011 10.5079 7.79056 9.67688C7.87486 9.1349 7.86282 8.5929 7.89895 7.96661L20.3405 7.96661C20.3405 8.32793 20.3405 8.7495 20.3405 9.159C20.3645 10.267 21.0149 11.0258 21.9303 11.0017C22.8215 10.9776 23.4358 10.255 23.4478 9.18307C23.4478 8.79766 23.4478 8.40022 23.4478 7.95459L28.0968 7.95459V29.7061H28.1089Z" fill="url(#paint1_linear_46_5265)"></path><path d="M85.9321 59.5873C85.5707 64.694 81.7648 68.5481 76.8388 68.7287C70.6963 68.9455 65.9751 63.2005 67.3601 57.2026C67.5288 56.4799 67.7937 56.1668 68.6248 56.1788C73.888 56.227 79.1513 56.227 84.4145 56.1788C85.1974 56.1788 85.5105 56.4558 85.5948 57.1664C85.6912 57.9734 85.8237 58.7803 85.9321 59.5993V59.5873Z" fill="url(#paint2_linear_46_5265)"></path><path d="M12.6924 57.793H13.6438C18.8469 57.793 24.0499 57.793 29.2529 57.793C30.7705 57.793 31.3847 58.4072 31.2884 59.8887C30.9512 65.188 26.4949 69.0662 21.2196 68.7651C16.5103 68.5002 12.4756 64.1884 12.5478 59.2985C12.5478 58.8167 12.6442 58.347 12.7044 57.793H12.6924Z" fill="url(#paint3_linear_46_5265)"></path><path d="M87.4134 53.0956H65.6016C65.6497 51.4576 66.3242 50.1207 67.3118 48.9524C69.1907 46.7243 71.5634 45.4235 74.5021 45.3633C76.4051 45.3272 78.3803 45.2188 80.223 45.6162C83.8242 46.4111 86.3414 48.5911 87.317 52.3007C87.3772 52.5295 87.3772 52.7704 87.4134 53.0956Z" fill="url(#paint4_linear_46_5265)"></path><path d="M0.0692996 4.70276C0.0692996 3.64288 0.0452115 2.64321 0.0692996 1.64356C0.0933877 0.776385 0.683548 0.174197 1.53868 0.0778445C1.77956 0.0537564 2.02044 0.0778445 2.27336 0.0778445C10.1502 0.0778445 18.039 0.0778445 25.9158 0.0778445C27.6863 0.0778445 28.1681 0.571643 28.1801 2.36621C28.1801 3.12498 28.1801 3.88375 28.1801 4.72683L0.0692996 4.72683V4.70276Z" fill="url(#paint5_linear_46_5265)"></path><path d="M68.6851 11.0017V17.1683C68.4081 17.1923 68.1672 17.2285 67.9383 17.2285C65.1441 17.2285 62.3379 17.2405 59.5436 17.2285C57.6045 17.2285 56.2074 15.9157 56.1954 14.1331C56.1833 12.3265 57.6166 11.0017 59.5918 11.0017C62.6028 11.0017 65.6018 11.0017 68.6851 11.0017Z" fill="url(#paint6_linear_46_5265)"></path><path d="M31.2739 29.7419C31.2739 28.5495 31.2377 27.5258 31.2739 26.49C31.322 25.6108 31.852 25.0688 32.7312 25.0568C34.6462 25.0206 36.5612 25.0206 38.4762 25.0688C39.6204 25.1049 40.5117 26.0685 40.596 27.1886C40.6803 28.3689 39.9095 29.4649 38.7291 29.6215C37.7415 29.7539 36.7298 29.7178 35.7302 29.7299C34.2728 29.7419 32.8155 29.7299 31.2618 29.7299L31.2739 29.7419Z" fill="url(#paint7_linear_46_5265)"></path></g><defs><linearGradient id="paint0_linear_46_5265" x1="39.5538" y1="20.2935" x2="39.5538" y2="57.745" gradientUnits="userSpaceOnUse"><stop stop-color="#04F485"></stop><stop offset="1" stop-color="#0DCB72"></stop></linearGradient><linearGradient id="paint1_linear_46_5265" x1="14.0896" y1="7.95459" x2="14.0896" y2="29.7543" gradientUnits="userSpaceOnUse"><stop stop-color="#04F485"></stop><stop offset="1" stop-color="#0DCB72"></stop></linearGradient><linearGradient id="paint2_linear_46_5265" x1="76.5246" y1="56.1785" x2="76.5246" y2="68.7347" gradientUnits="userSpaceOnUse"><stop stop-color="#04F485"></stop><stop offset="1" stop-color="#0DCB72"></stop></linearGradient><linearGradient id="paint3_linear_46_5265" x1="21.9225" y1="57.793" x2="21.9225" y2="68.7815" gradientUnits="userSpaceOnUse"><stop stop-color="#04F485"></stop><stop offset="1" stop-color="#0DCB72"></stop></linearGradient><linearGradient id="paint4_linear_46_5265" x1="76.5075" y1="45.3223" x2="76.5075" y2="53.0956" gradientUnits="userSpaceOnUse"><stop stop-color="#04F485"></stop><stop offset="1" stop-color="#0DCB72"></stop></linearGradient><linearGradient id="paint5_linear_46_5265" x1="14.1194" y1="0.0671387" x2="14.1194" y2="4.72683" gradientUnits="userSpaceOnUse"><stop stop-color="#04F485"></stop><stop offset="1" stop-color="#0DCB72"></stop></linearGradient><linearGradient id="paint6_linear_46_5265" x1="62.4402" y1="11.0017" x2="62.4402" y2="17.2338" gradientUnits="userSpaceOnUse"><stop stop-color="#04F485"></stop><stop offset="1" stop-color="#0DCB72"></stop></linearGradient><linearGradient id="paint7_linear_46_5265" x1="35.93" y1="25.031" x2="35.93" y2="29.7419" gradientUnits="userSpaceOnUse"><stop stop-color="#04F485"></stop><stop offset="1" stop-color="#0DCB72"></stop></linearGradient></defs></svg>