<svg xmlns="http://www.w3.org/2000/svg" width="71" height="114" viewBox="0 0 71 114" fill="none"><g opacity="0.1"><path d="M47.2149 90.3353C41.6782 90.8673 36.8537 88.7193 32.1979 86.1463C25.9325 82.679 20.4489 78.2493 15.8989 72.6758C6.57024 61.2418 9.90807 44.487 21.9322 36.9685C33.1817 29.9272 48.2679 33.2777 55.3415 44.4956C55.4532 44.6764 55.6192 44.8347 55.7542 45.0059L58.3016 51.1224C58.4829 52.2568 58.7095 53.3905 58.8411 54.5365C59.7539 62.2981 58.8412 69.892 56.521 77.3171C55.0765 81.9304 53.2554 86.3822 49.2492 89.4971L47.2104 90.3462L47.2149 90.3353ZM26.2163 61.1467C28.1922 65.8911 33.6736 68.1749 38.4167 66.2177C43.141 64.2592 45.4351 58.7371 43.4812 54.0018C41.5304 49.2742 36.0038 46.9911 31.2685 48.9451C26.5332 50.899 24.2546 56.4147 26.2273 61.1513L26.2163 61.1467Z" fill="url(#paint0_linear_46_5351)"></path><path d="M-24.7635 26.0873C-24.5989 26.4827 -24.4697 26.7928 -24.3438 27.0951C-22.0579 32.5837 -19.7721 38.0723 -17.4784 43.5576C-16.8456 45.077 -15.8425 45.76 -14.4795 45.4288C-13.878 45.2784 -13.2669 44.8237 -12.8385 44.3451C-10.961 42.235 -9.12928 40.0803 -7.31181 37.9134C-6.98359 37.522 -6.6735 37.3928 -6.16448 37.4356C-3.37584 37.666 -0.589128 37.8699 2.2021 38.0628C4.71233 38.2364 5.95159 36.5376 4.98752 34.201C2.72683 28.7292 0.438356 23.2781 -1.83784 17.8128C-1.97667 17.4794 -2.1155 17.1461 -2.27693 16.7585C-1.98105 16.6171 -1.76593 16.5002 -1.53336 16.4033C3.45907 14.3241 8.45149 12.2448 13.4439 10.1656C14.9789 9.52631 16.3605 10.0698 16.9933 11.5892C19.4762 17.5507 21.9558 23.5044 24.4386 29.4659C24.4935 29.5976 24.5296 29.7281 24.6091 29.9407C14.7792 34.0346 8.3106 41.1315 6.11003 51.618C3.90494 62.1154 7.13273 71.1324 14.6125 78.8698L13.659 79.2669C3.88347 83.3383 -5.89208 87.4096 -15.6676 91.4809C-17.5669 92.2719 -18.8078 91.7607 -19.5956 89.8692C-27.0182 72.0468 -34.4441 54.2167 -41.8667 36.3944C-42.6352 34.5493 -42.1162 33.3053 -40.2635 32.5336C-35.4028 30.5093 -30.5422 28.4849 -25.6815 26.4606C-25.4025 26.3443 -25.1234 26.2281 -24.7668 26.0796L-24.7635 26.0873Z" fill="url(#paint1_linear_46_5351)"></path><path d="M30.9021 59.1858C29.993 56.9809 31.0069 54.5664 33.2273 53.6508C35.4134 52.7403 37.8718 53.7723 38.7778 55.9694C39.6773 58.151 38.6498 60.5985 36.4371 61.5109C34.2433 62.4246 31.8068 61.4016 30.9021 59.1858Z" fill="url(#paint2_linear_46_5351)"></path></g><defs><linearGradient id="paint0_linear_46_5351" x1="25.4194" y1="35.1615" x2="48.2265" y2="89.9231" gradientUnits="userSpaceOnUse"><stop stop-color="#04F485"></stop><stop offset="1" stop-color="#0DCB72"></stop></linearGradient><linearGradient id="paint1_linear_46_5351" x1="-13.5183" y1="21.3948" x2="11.0388" y2="80.3582" gradientUnits="userSpaceOnUse"><stop stop-color="#04F485"></stop><stop offset="1" stop-color="#0DCB72"></stop></linearGradient><linearGradient id="paint2_linear_46_5351" x1="33.2078" y1="53.6589" x2="36.472" y2="61.4964" gradientUnits="userSpaceOnUse"><stop stop-color="#04F485"></stop><stop offset="1" stop-color="#0DCB72"></stop></linearGradient></defs></svg>