<svg xmlns="http://www.w3.org/2000/svg" width="89" height="90" viewBox="0 0 89 90" fill="none"><g opacity="0.1"><path d="M1.32422 48.2219H79.6851C79.1445 50.1269 78.6168 51.9932 78.0891 53.8467C74.7297 65.5082 71.3574 77.1696 68.0237 88.8311C67.7791 89.6806 67.4702 90.0024 66.5306 89.9895C49.1542 89.9509 31.7779 89.9638 14.3887 89.9895C13.5778 89.9895 13.2174 89.7964 12.9857 88.9727C9.18863 75.6894 5.35296 62.4062 1.53016 49.1229C1.45293 48.8526 1.40145 48.5566 1.32422 48.2219ZM68.191 56.8843C67.9593 56.5625 67.7148 55.919 67.29 55.7388C66.8524 55.5458 66.1573 55.6873 65.6811 55.919C65.385 56.0606 65.2048 56.5883 65.1019 56.9873C63.6474 62.7408 62.2187 68.5072 60.7771 74.2607C60.2365 76.4359 59.683 78.5983 59.181 80.7865C58.9751 81.7132 59.4256 82.3954 60.2236 82.5756C61.0731 82.7687 61.7167 82.3954 62.0256 81.5073C62.09 81.3271 62.1286 81.134 62.1672 80.9409C63.6474 75.0587 65.1276 69.1765 66.595 63.2943C67.1098 61.2478 67.5989 59.2012 68.1653 56.8972L68.191 56.8843ZM14.6075 55.5457C13.1273 55.5715 12.6382 56.4725 12.9986 57.9141C14.556 64.1438 16.1006 70.3864 17.6709 76.6162C18.0827 78.2508 18.4818 79.8984 18.9323 81.5202C19.1897 82.4212 19.8976 82.7944 20.7214 82.5885C21.5065 82.3954 21.9055 81.7647 21.7897 80.8766C21.7511 80.6192 21.6867 80.3618 21.6353 80.1172C20.76 76.5905 19.8847 73.0637 18.9966 69.5369C17.954 65.3537 16.9115 61.1576 15.8689 56.9744C15.6629 56.1378 15.251 55.5457 14.6075 55.5457ZM35.8066 81.1855C35.4462 76.6934 35.1244 72.6518 34.7898 68.6102C34.4809 64.7874 34.1591 60.9775 33.8244 57.1547C33.7343 56.0606 33.1036 55.4814 32.1383 55.5715C31.2373 55.6487 30.7611 56.2923 30.8383 57.3863C30.9026 58.2873 30.9927 59.2012 31.07 60.1022C31.6492 67.0656 32.2413 74.0162 32.8333 80.9796C32.9234 82.1123 33.5155 82.7043 34.4423 82.64C35.3561 82.5756 35.8452 81.9063 35.8195 81.1984L35.8066 81.1855ZM50.0424 58.4289C50.1325 56.421 49.9008 55.8546 49.1542 55.6101C48.0473 55.2497 47.2235 55.9962 47.1077 57.3863C46.7473 61.827 46.3612 66.2547 46.0008 70.6954C45.7176 74.0934 45.4216 77.4914 45.177 80.9024C45.0998 81.9578 45.679 82.6271 46.5671 82.6657C47.4552 82.7043 48.0473 82.0994 48.1374 81.0568C48.3562 78.5598 48.5493 76.0627 48.7681 73.5785C49.2186 68.327 49.6562 63.0884 50.0552 58.4418L50.0424 58.4289Z" fill="url(#paint0_linear_46_5250)"></path><path d="M40.517 36.2641C55.126 36.2641 69.735 36.2641 84.344 36.2641C87.6262 36.2641 89.8401 39.3146 88.6945 42.275C87.9866 44.0899 86.5836 45.0166 84.6658 45.1968C84.4727 45.2097 84.2797 45.1968 84.0866 45.1968C55.0359 45.1968 25.9724 45.1968 -3.07834 45.1968C-4.28825 45.1968 -5.39518 44.9393 -6.34767 44.1671C-7.815 42.97 -8.36847 40.9879 -7.75064 39.2374C-7.10708 37.4097 -5.47241 36.2512 -3.50309 36.2512C8.33857 36.2512 20.1802 36.2512 32.0219 36.2512C34.8536 36.2512 37.6853 36.2512 40.517 36.2512V36.2641Z" fill="url(#paint1_linear_46_5250)"></path><path d="M24.0303 33.278H22.9362C18.251 33.278 13.5658 33.2652 8.88067 33.2909C8.21136 33.2909 7.83809 33.0849 7.49056 32.5057C4.74896 27.8977 2.43211 23.1096 1.55686 17.7808C1.24794 15.9145 1.19646 13.9452 1.45389 12.0788C1.89152 8.83524 4.02816 7.58676 7.23313 8.4234C10.2965 9.22143 12.8064 11.0234 15.1748 13.0313C18.4698 15.8244 21.2114 19.1195 23.657 22.672C23.8372 22.9294 24.0174 23.2512 24.0174 23.5473C24.0431 26.7265 24.0303 29.9186 24.0303 33.2651V33.278ZM11.1846 29.4681C11.6351 29.3522 11.8797 29.3393 12.0599 29.2235C14.2094 27.8334 16.3718 26.4562 18.4698 25.0017C19.1392 24.5384 19.1906 23.7789 18.6887 23.0967C18.2124 22.4403 17.5174 22.1829 16.8094 22.6205C14.6728 23.9591 12.5361 25.3235 10.4896 26.8037C10.1292 27.0611 9.96187 27.9364 10.0906 28.4384C10.2064 28.876 10.85 29.1849 11.1718 29.4809L11.1846 29.4681ZM9.65295 24.2165C10.0391 24.1522 10.1935 24.1651 10.2836 24.1007C11.8025 23.1225 13.3599 22.1829 14.8144 21.1017C15.3678 20.6898 15.3164 19.9175 14.8916 19.3254C14.4797 18.7462 13.8361 18.4245 13.1926 18.8106C11.7252 19.6859 10.2708 20.6126 8.90641 21.6551C8.57175 21.9126 8.44304 22.7492 8.5975 23.1997C8.75196 23.6502 9.35691 23.9462 9.64008 24.2165H9.65295Z" fill="url(#paint2_linear_46_5250)"></path><path d="M69.9931 15.3995V33.2136H50.0039V15.3995H69.9931Z" fill="url(#paint3_linear_46_5250)"></path><path d="M46.9276 33.2265H27.0671C27.0414 32.8918 27.0156 32.6087 27.0156 32.3256C27.0156 27.4087 27.0156 22.4918 27.0156 17.5878C27.0156 15.9274 27.6335 15.3096 29.3196 15.3096C34.4295 15.3096 39.5395 15.3096 44.6494 15.3096C46.3356 15.3096 46.9276 15.9145 46.9276 17.6135C46.9276 22.4918 46.9276 27.3829 46.9276 32.2611V33.2394V33.2265ZM30.98 24.5899C30.98 27.8592 33.683 30.5621 36.9395 30.575C40.2217 30.6007 43.0019 27.8205 42.9761 24.5512C42.9633 21.2304 40.2345 18.5531 36.9008 18.5918C33.6058 18.6304 30.9543 21.3077 30.9671 24.5899H30.98Z" fill="url(#paint4_linear_46_5250)"></path><path d="M80.0962 33.2139H73.0685V32.2099C73.0685 26.5208 73.0556 20.8187 73.0942 15.1296C73.0942 14.589 73.2873 13.984 73.5704 13.5207C74.5101 12.0147 75.5398 10.5603 76.6081 8.98999C77.8051 10.7662 78.9378 12.4137 80.0447 14.087C80.1735 14.2801 80.1606 14.589 80.1606 14.8464C80.1606 20.7415 80.1606 26.6237 80.1606 32.5188C80.1606 32.7376 80.1091 32.9564 80.0834 33.2267L80.0962 33.2139Z" fill="url(#paint5_linear_46_5250)"></path><path d="M73.7395 7.88264C72.7741 9.29849 71.8731 10.6629 70.9335 12.0144C70.8306 12.1688 70.5474 12.2718 70.3543 12.2718C64.086 12.2847 57.8047 12.2718 51.3047 12.2718C52.3344 10.7401 53.2611 9.35 54.2136 7.98564C54.3295 7.83118 54.677 7.76685 54.9087 7.76685C61.0612 7.76685 67.2008 7.76685 73.3534 7.76685C73.4435 7.76685 73.5207 7.81829 73.7395 7.88264Z" fill="url(#paint6_linear_46_5250)"></path><path d="M70.4955 0.958008V4.74212H59.6836V0.958008H70.4955Z" fill="url(#paint7_linear_46_5250)"></path><path d="M32.8984 12.2203V9.1311H41.0331V12.2203H32.8984Z" fill="url(#paint8_linear_46_5250)"></path><path d="M34.004 24.5899C33.9911 22.9166 35.2654 21.6166 36.9258 21.6038C38.5991 21.6038 39.912 22.8523 39.9634 24.4998C40.0021 26.1602 38.6377 27.576 36.9773 27.5889C35.3812 27.5889 34.0169 26.2246 34.004 24.5899Z" fill="url(#paint9_linear_46_5250)"></path></g><defs><linearGradient id="paint0_linear_46_5250" x1="40.5047" y1="48.2219" x2="40.5047" y2="89.9899" gradientUnits="userSpaceOnUse"><stop stop-color="#04F485"></stop><stop offset="1" stop-color="#0DCB72"></stop></linearGradient><linearGradient id="paint1_linear_46_5250" x1="40.5" y1="36.2512" x2="40.5" y2="45.2026" gradientUnits="userSpaceOnUse"><stop stop-color="#04F485"></stop><stop offset="1" stop-color="#0DCB72"></stop></linearGradient><linearGradient id="paint2_linear_46_5250" x1="12.6613" y1="8.1709" x2="12.6613" y2="33.2909" gradientUnits="userSpaceOnUse"><stop stop-color="#04F485"></stop><stop offset="1" stop-color="#0DCB72"></stop></linearGradient><linearGradient id="paint3_linear_46_5250" x1="59.9985" y1="15.3995" x2="59.9985" y2="33.2136" gradientUnits="userSpaceOnUse"><stop stop-color="#04F485"></stop><stop offset="1" stop-color="#0DCB72"></stop></linearGradient><linearGradient id="paint4_linear_46_5250" x1="36.9716" y1="15.3096" x2="36.9716" y2="33.2394" gradientUnits="userSpaceOnUse"><stop stop-color="#04F485"></stop><stop offset="1" stop-color="#0DCB72"></stop></linearGradient><linearGradient id="paint5_linear_46_5250" x1="76.6137" y1="8.98999" x2="76.6137" y2="33.2267" gradientUnits="userSpaceOnUse"><stop stop-color="#04F485"></stop><stop offset="1" stop-color="#0DCB72"></stop></linearGradient><linearGradient id="paint6_linear_46_5250" x1="62.5221" y1="7.76685" x2="62.5221" y2="12.2775" gradientUnits="userSpaceOnUse"><stop stop-color="#04F485"></stop><stop offset="1" stop-color="#0DCB72"></stop></linearGradient><linearGradient id="paint7_linear_46_5250" x1="65.0896" y1="0.958008" x2="65.0896" y2="4.74212" gradientUnits="userSpaceOnUse"><stop stop-color="#04F485"></stop><stop offset="1" stop-color="#0DCB72"></stop></linearGradient><linearGradient id="paint8_linear_46_5250" x1="36.9658" y1="9.1311" x2="36.9658" y2="12.2203" gradientUnits="userSpaceOnUse"><stop stop-color="#04F485"></stop><stop offset="1" stop-color="#0DCB72"></stop></linearGradient><linearGradient id="paint9_linear_46_5250" x1="36.9841" y1="21.6038" x2="36.9841" y2="27.5889" gradientUnits="userSpaceOnUse"><stop stop-color="#04F485"></stop><stop offset="1" stop-color="#0DCB72"></stop></linearGradient></defs></svg>