<svg xmlns="http://www.w3.org/2000/svg" width="74" height="81" viewBox="0 0 74 81" fill="none"><path opacity="0.1" d="M5.42534 27.4061C1.62761 23.1676 -0.158991 18.4638 0.89246 12.9324C1.67622 8.7637 3.83273 5.43229 7.29044 2.95113C9.78816 1.16183 12.568 0.202008 15.6192 0.0391503C18.7094 -0.125905 21.5873 0.584394 24.2877 2.08989C26.9664 3.58458 28.8584 5.85764 30.6109 8.45142C31.1496 8.04804 31.6449 7.67718 32.1401 7.30632C36.2757 4.20937 41.3436 4.92868 44.5933 8.94232C48.671 13.9713 52.8509 18.9373 56.9721 23.9337C60.2241 27.878 63.4761 31.8223 66.7281 35.7666C68.3476 37.7301 69.9758 39.6871 71.5802 41.6485C74.9596 45.7811 74.2966 51.1975 70.0046 54.4116C59.4395 62.3231 48.8745 70.2347 38.3094 78.1462C34.7646 80.8007 30.3349 80.6983 27.1154 77.7028C25.9687 76.6423 25.135 75.2392 24.2403 73.9358C21.9778 70.6427 19.7738 67.3193 17.5372 64.0067C14.5552 59.5899 11.5732 55.1731 8.57598 50.7541C6.33946 47.4416 4.11811 44.1311 1.83815 40.851C-0.731433 37.1661 -0.48705 32.7661 2.62551 29.5162C3.38411 28.7184 4.40233 28.1586 5.42756 27.3909L5.42534 27.4061ZM26.3516 11.6005C23.7572 7.39349 20.2809 4.77946 15.1731 5.40113C10.7745 5.93772 7.76771 8.45967 6.40492 12.67C4.95915 17.1316 6.56376 20.8498 9.58305 24.1575L26.3603 11.594L26.3516 11.6005ZM12.7244 35.632C13.5826 36.7599 15.2841 36.9859 16.3942 36.1142C17.5216 35.2294 17.7336 33.5568 16.8667 32.4354C15.9847 31.3118 14.2982 31.0879 13.1882 31.9597C12.0608 32.8445 11.8532 34.4867 12.7244 35.632ZM36.4372 17.8072C35.5812 16.6641 33.9121 16.4272 32.774 17.2795C31.6358 18.1318 31.4151 19.8109 32.2711 20.954C33.1076 22.0711 34.8287 22.3232 35.9365 21.4665C37.0769 20.5991 37.3019 18.9438 36.4372 17.8072Z" fill="url(#paint0_linear_46_5249)"></path><defs><linearGradient id="paint0_linear_46_5249" x1="6.96022" y1="3.19361" x2="54.1853" y2="66.2577" gradientUnits="userSpaceOnUse"><stop stop-color="#04F485"></stop><stop offset="1" stop-color="#0DCB72"></stop></linearGradient></defs></svg>